<?xml version="1.0" encoding="UTF-8" standalone="no"?>
<!-- Created with Inkscape (http://www.inkscape.org/) -->

<svg
   width="512"
   height="512"
   viewBox="0 0 135.46666 135.46667"
   version="1.1"
   id="svg1"
   xml:space="preserve"
   inkscape:version="1.4.2 (ebf0e940d0, 2025-05-08)"
   sodipodi:docname="icon.svg"
   xmlns:inkscape="http://www.inkscape.org/namespaces/inkscape"
   xmlns:sodipodi="http://sodipodi.sourceforge.net/DTD/sodipodi-0.dtd"
   xmlns="http://www.w3.org/2000/svg"
   xmlns:svg="http://www.w3.org/2000/svg"><sodipodi:namedview
     id="namedview1"
     pagecolor="#505050"
     bordercolor="#eeeeee"
     borderopacity="1"
     inkscape:showpageshadow="false"
     inkscape:pageopacity="0"
     inkscape:pagecheckerboard="true"
     inkscape:deskcolor="#505050"
     inkscape:document-units="mm"
     showborder="true"
     borderlayer="true"
     labelstyle="default"
     inkscape:clip-to-page="false"
     inkscape:zoom="0.62359708"
     inkscape:cx="255.77413"
     inkscape:cy="311.09831"
     inkscape:window-width="1920"
     inkscape:window-height="1008"
     inkscape:window-x="0"
     inkscape:window-y="40"
     inkscape:window-maximized="1"
     inkscape:current-layer="layer1" /><defs
     id="defs1" /><g
     inkscape:label="Camada 1"
     inkscape:groupmode="layer"
     id="layer1"><path
       style="fill:#673ab7;stroke-width:1.31366;fill-opacity:1"
       d="m 25.305419,127.96927 c -0.535686,-0.21575 -0.68028,-1.05499 -0.628903,-3.65026 l 0.0465,-2.35127 0.570116,-0.051 0.57013,-0.051 0.04191,2.55527 0.04191,2.55528 1.262338,0.0444 1.262338,0.0444 v 0.52935 0.52934 l -1.415354,-0.009 c -0.778437,-0.005 -1.566411,-0.0705 -1.751047,-0.14491 z m 3.931452,-2.8801 c 0,-1.66909 0.03232,-3.06702 0.07186,-3.10653 0.03954,-0.0395 0.314925,-0.0435 0.612036,-0.009 l 0.540218,0.0631 v 3.04346 3.04347 H 29.848936 29.2369 Z m 2.840875,0.0866 c -0.499336,-1.61854 -0.93232,-3.01652 -0.962179,-3.10664 -0.062,-0.18699 1.013951,-0.14662 1.191466,0.0447 0.06082,0.0656 0.367037,1.01427 0.68053,2.10829 0.313492,1.09403 0.616791,2.04068 0.673988,2.10369 0.05714,0.0631 0.415498,-0.90016 0.796211,-2.14037 l 0.692208,-2.25491 0.562655,-0.001 c 0.381147,-0.001 0.562669,0.0674 0.562695,0.21247 1.3e-5,0.11784 -0.429095,1.51216 -0.953588,3.09848 l -0.953601,2.8842 -0.69125,-0.003 -0.691262,-0.003 z m 4.962638,-0.14111 -1.3e-5,-3.10769 1.644877,0.0352 c 0.90468,0.0193 1.795252,0.11468 1.97906,0.21172 0.451269,0.23833 0.715315,0.93351 0.694914,1.82953 -0.01918,0.83895 -0.209779,1.28551 -0.649291,1.52074 -0.290687,0.15556 -0.279153,0.20637 0.315568,1.38922 l 0.617304,1.22775 -0.705319,-0.0469 -0.705319,-0.0469 -0.494029,-1.14759 c -0.452583,-1.05129 -0.534582,-1.15156 -0.977247,-1.19503 l -0.483205,-0.0474 -0.0448,1.19504 -0.0448,1.19503 -0.573782,0.0476 -0.573794,0.0474 z m 3.054845,-0.57297 c 0.231099,-0.43181 0.193726,-1.02393 -0.0821,-1.29971 -0.153541,-0.15354 -0.513025,-0.24045 -0.994574,-0.24045 h -0.754122 v 0.91806 0.91807 h 0.836173 c 0.670099,0 0.867635,-0.0589 0.994574,-0.29597 z m 2.585249,3.36981 c -0.35235,-0.28521 -0.361218,-0.35238 -0.361218,-2.73788 0,-3.18733 -0.07291,-3.09015 2.318865,-3.09015 h 1.735914 v 0.52979 0.5298 l -1.415354,0.044 -1.41534,0.044 -0.0465,0.63905 -0.0465,0.63906 1.232335,0.10746 c 1.229969,0.10733 1.232334,0.10838 1.232334,0.54677 0,0.41453 -0.03665,0.43937 -0.650303,0.44096 -0.357658,9.3e-4 -0.911984,0.0449 -1.231835,0.0977 -0.573401,0.0947 -0.580902,0.10496 -0.535541,0.72511 l 0.04598,0.62901 1.415354,0.044 1.415341,0.044 v 0.43416 c 0,0.52452 -0.345967,0.62542 -2.144319,0.62542 -0.941502,0 -1.262956,-0.0607 -1.549229,-0.29238 z m 4.726376,0.18691 c -0.177082,-0.0462 -0.267764,-0.21969 -0.267764,-0.51204 v -0.44211 l 1.415341,-0.044 1.415353,-0.044 v -0.61204 -0.61205 l -0.994574,-0.0871 c -1.660181,-0.14536 -1.989135,-0.46948 -1.989135,-1.95996 0,-1.60544 0.750088,-2.04472 2.983709,-1.74741 0.89693,0.11941 0.91917,0.13377 0.96641,0.62478 l 0.04834,0.50258 -0.991815,-0.10168 c -0.545486,-0.0558 -1.168674,-0.0573 -1.384851,-0.003 -0.461253,0.11573 -0.65892,0.67698 -0.40533,1.1508 0.142138,0.26559 0.315489,0.32029 1.015172,0.32029 1.09662,0 1.671466,0.30315 1.902565,1.00337 0.250201,0.75812 0.06516,1.8496 -0.390736,2.30556 -0.330714,0.3307 -0.484098,0.36172 -1.709115,0.34556 -0.740196,-0.009 -1.466297,-0.0493 -1.613572,-0.0877 z m 7.382589,-2.98375 -1.84e-4,-3.10769 1.721543,0.0435 c 1.690618,0.0427 1.729109,0.0516 2.142321,0.4997 0.369928,0.4011 0.42078,0.57759 0.42078,1.46018 0,0.91603 -0.04099,1.04494 -0.468649,1.47256 -0.455027,0.45504 -0.499284,0.46608 -1.523836,0.38019 l -1.055187,-0.0884 -0.04453,1.1764 -0.04453,1.17641 -0.573794,0.0476 -0.573782,0.0474 z m 3.128804,-0.7847 c 0.113238,-0.32343 0.09366,-0.53376 -0.07856,-0.84156 -0.196353,-0.35112 -0.344731,-0.41704 -1.02777,-0.45661 l -0.798274,-0.0462 v 0.9337 0.93369 l 0.876778,-0.0458 c 0.806405,-0.0422 0.888903,-0.0805 1.027771,-0.47708 z m 1.799495,3.69244 c 0.03967,-0.11061 0.509399,-1.47485 1.043942,-3.03174 0.534529,-1.55687 1.035482,-2.87406 1.113198,-2.92708 0.131471,-0.0897 1.16853,-0.0466 1.255021,0.052 0.05557,0.0634 1.911406,5.88515 1.911406,5.99601 0,0.0507 -0.266463,0.0922 -0.592147,0.0922 -0.571259,0 -0.598964,-0.0243 -0.78494,-0.68854 l -0.19278,-0.68854 h -1.038437 -1.038438 l -0.215913,0.65029 c -0.204971,0.61739 -0.249228,0.65273 -0.874427,0.69833 -0.492755,0.036 -0.640398,-0.003 -0.586485,-0.15302 z m 3.334432,-2.3714 c 0,-0.27877 -0.512092,-1.88442 -0.601001,-1.88442 -0.05596,0 -0.247166,0.44756 -0.42501,0.99457 l -0.323358,0.99456 h 0.674685 c 0.371083,0 0.674684,-0.0472 0.674684,-0.1047 z m 2.601053,-0.53634 -1.32e-4,-3.10769 1.644995,0.0444 c 0.904746,0.0244 1.795371,0.11967 1.979178,0.21172 0.831523,0.41643 0.976919,2.43463 0.229248,3.1823 l -0.431118,0.43113 0.500203,0.97244 c 0.664109,1.29109 0.656477,1.38322 -0.109953,1.32552 -0.616673,-0.0464 -0.630992,-0.0612 -1.079227,-1.11413 -0.485819,-1.14118 -0.626591,-1.29857 -1.16476,-1.30223 -0.252617,-0.001 -0.347082,0.0893 -0.354859,0.34193 -0.0053,0.18935 -0.02299,0.72298 -0.03823,1.18583 l -0.02772,0.84156 -0.573795,0.0476 -0.573782,0.0474 z m 3.054949,-0.57297 c 0.231113,-0.43181 0.193726,-1.02393 -0.0821,-1.29971 -0.153527,-0.15354 -0.513011,-0.24045 -0.994561,-0.24045 h -0.754121 v 0.91806 0.91807 h 0.836173 c 0.670099,0 0.867635,-0.0589 0.994561,-0.29597 z m 2.026326,3.48071 c 0.03967,-0.11061 0.508032,-1.47485 1.040907,-3.03174 0.532887,-1.55687 0.987388,-2.85526 1.01001,-2.88529 0.06095,-0.0808 1.264282,-0.093 1.337374,-0.0135 0.07068,0.077 1.935276,5.87679 1.935276,6.01989 0,0.0507 -0.266477,0.0922 -0.59216,0.0922 -0.571247,0 -0.598965,-0.0243 -0.78494,-0.68855 l -0.19278,-0.68854 h -1.038438 -1.038437 l -0.215901,0.65029 c -0.204984,0.6174 -0.249228,0.65273 -0.87444,0.69833 -0.492755,0.036 -0.640384,-0.003 -0.586471,-0.15301 z m 3.334431,-2.3714 c 0,-0.27877 -0.512105,-1.88442 -0.601014,-1.88442 -0.05596,0 -0.247152,0.44756 -0.425009,0.99457 l -0.323359,0.99456 h 0.674698 c 0.37107,0 0.674684,-0.0472 0.674684,-0.1047 z m 5.234146,2.3714 c 0.03967,-0.11061 0.509399,-1.47485 1.043942,-3.03174 0.534529,-1.55687 1.035482,-2.87406 1.113211,-2.92708 0.131471,-0.0897 1.168516,-0.0466 1.255008,0.052 0.05557,0.0634 1.911419,5.88515 1.911419,5.99601 0,0.0507 -0.266476,0.0922 -0.59216,0.0922 -0.571246,0 -0.598964,-0.0243 -0.78494,-0.68854 l -0.19278,-0.68854 h -1.038437 -1.038438 l -0.2159,0.65029 c -0.204984,0.61739 -0.249228,0.65273 -0.87444,0.69833 -0.492755,0.036 -0.640385,-0.003 -0.586485,-0.15302 z m 3.334432,-2.3714 c 0,-0.27877 -0.512093,-1.88442 -0.601001,-1.88442 -0.05596,0 -0.247166,0.44756 -0.42501,0.99457 l -0.323358,0.99456 h 0.674684 c 0.371084,0 0.674685,-0.0472 0.674685,-0.1047 z m 2.754199,-0.49416 v -3.07337 h 1.747881 c 1.654388,0 1.772894,0.021 2.215756,0.3937 0.568571,0.4784 0.818581,1.30748 0.813081,2.69625 -0.005,1.28153 -0.21762,1.93835 -0.81161,2.50794 -0.450048,0.43158 -0.52176,0.44768 -2.215112,0.49744 l -1.749996,0.0514 z m 3.063568,1.82116 c 0.541058,-0.28956 0.774877,-1.91823 0.445607,-3.10395 -0.18541,-0.66771 -0.562523,-0.87252 -1.606505,-0.87252 h -0.678585 v 2.06564 2.06564 h 0.7751 c 0.42631,0 0.905285,-0.0696 1.064383,-0.15481 z m 3.53063,1.03237 c -0.20228,-0.10391 -0.51212,-0.38341 -0.68855,-0.62101 -0.28287,-0.38095 -0.32077,-0.64389 -0.32077,-2.22537 0,-1.95291 0.13006,-2.34877 0.94788,-2.88461 0.49491,-0.32428 2.04249,-0.36655 2.73347,-0.0746 0.83895,0.3544 1.06198,0.95552 1.06198,2.86246 0,1.89513 -0.20586,2.49934 -0.98956,2.90462 -0.54454,0.28158 -2.22562,0.30521 -2.74445,0.0386 z m 2.2804,-1.18357 c 0.37513,-0.37512 0.48121,-1.69594 0.23962,-2.98366 -0.11521,-0.61399 -0.73365,-0.92652 -1.5358,-0.77602 -0.63646,0.11941 -0.77475,0.34612 -0.89321,1.46452 -0.11232,1.05998 0.0874,2.14024 0.44381,2.40084 0.42298,0.30929 1.3891,0.2508 1.74558,-0.10562 z m 2.29502,-1.72138 -1.5e-4,-3.09845 1.55775,0.0311 c 0.85675,0.0171 1.74603,0.10903 1.976152,0.20438 0.92254,0.38213 1.12374,2.39873 0.31955,3.20291 l -0.431122,0.43113 0.500212,0.97244 c 0.66411,1.29109 0.65647,1.38322 -0.10996,1.32552 -0.616672,-0.0464 -0.630992,-0.0612 -1.079222,-1.11413 -0.48582,-1.14118 -0.62659,-1.29857 -1.16476,-1.30223 -0.32852,-0.003 -0.34427,0.0536 -0.34427,1.22173 v 1.22408 h -0.61205 -0.61204 z m 3.05496,-0.56373 c 0.23111,-0.43181 0.19373,-1.02393 -0.0821,-1.29971 -0.15353,-0.15354 -0.51301,-0.24045 -0.99456,-0.24045 h -0.75412 v 0.91806 0.91807 h 0.83617 c 0.6701,0 0.86763,-0.0589 0.99456,-0.29597 z m 2.076612,3.3386 c 0.0598,-0.18838 0.53859,-1.58239 1.06401,-3.09779 l 0.9553,-2.75529 0.63911,0.009 c 0.35151,0.005 0.66304,0.0349 0.69227,0.0663 0.0657,0.0704 1.92259,5.86949 1.92259,6.004 0,0.0533 -0.26647,0.0969 -0.59216,0.0969 -0.57124,0 -0.59896,-0.0243 -0.78494,-0.68855 l -0.19278,-0.68854 h -1.03843 -1.03844 l -0.2159,0.65029 c -0.20449,0.61591 -0.25037,0.65282 -0.86762,0.698 -0.6135,0.0449 -0.64534,0.0276 -0.54301,-0.2948 z m 3.28415,-2.22929 c 0,-0.27877 -0.51211,-1.88442 -0.60102,-1.88442 -0.056,0 -0.24715,0.44756 -0.425,0.99457 l -0.32336,0.99456 h 0.67469 c 0.37108,0 0.67469,-0.0472 0.67469,-0.1047 z m 2.60117,-0.50732 v -3.06021 l 1.26234,-0.0176 c 1.57811,-0.0221 1.77813,-0.005 2.28203,0.19106 0.89806,0.34992 1.09666,2.40056 0.30881,3.18843 l -0.43113,0.43113 0.5002,0.97244 c 0.66412,1.2911 0.65648,1.38322 -0.10996,1.32553 -0.61667,-0.0464 -0.63099,-0.0612 -1.07922,-1.11413 -0.48583,-1.14118 -0.6266,-1.29857 -1.16477,-1.30224 -0.32853,-0.003 -0.34427,0.0536 -0.34427,1.22173 v 1.22409 h -0.61203 -0.61205 z m 3.05484,-0.60199 c 0.2311,-0.43181 0.19372,-1.02393 -0.0821,-1.29971 -0.15354,-0.15354 -0.51303,-0.24045 -0.99458,-0.24045 h -0.75412 v 0.91806 0.91807 h 0.83617 c 0.67011,0 0.86764,-0.0589 0.99458,-0.29597 z m -48.428764,-3.81687 c -0.340107,-0.1545 -0.812724,-0.51186 -1.050247,-0.79415 l -0.431867,-0.51325 0.642473,-0.21415 c 0.576291,-0.1921 0.693917,-0.18645 1.141941,0.0548 0.654717,0.35258 1.270194,0.20908 1.404884,-0.32756 0.07212,-0.28712 0.01182,-0.48092 -0.2208,-0.71385 -0.271824,-0.27181 -0.395216,-0.29706 -0.823391,-0.16848 -0.413975,0.12428 -0.604141,0.0942 -1.067982,-0.16929 l -0.564323,-0.32055 0.449561,-0.82209 c 0.247271,-0.45215 0.449575,-0.83865 0.449575,-0.85888 0,-0.0202 -0.361494,-0.12033 -0.803305,-0.22252 -2.273438,-0.52563 -4.40726,-2.22997 -5.394452,-4.3087 -1.458744,-3.07172 -0.863352,-6.49057 1.550766,-8.90469 1.198311,-1.19831 2.389396,-1.83516 4.075049,-2.17884 2.967604,-0.605064 6.192726,0.72607 7.952049,3.28211 0.251395,0.36523 0.397869,0.71686 0.325486,0.78138 -0.07238,0.0645 -0.692235,0.41191 -1.377468,0.77198 l -1.245891,0.65468 -0.89626,-0.90766 c -0.679255,-0.68789 -1.095003,-0.97076 -1.717128,-1.16828 -2.345217,-0.74462 -4.583383,0.17322 -5.707485,2.34054 -0.287876,0.55506 -0.356673,0.92587 -0.35482,1.91264 0.0039,1.96163 0.82963,3.34723 2.475282,4.15237 1.102387,0.53934 2.802504,0.58273 3.880075,0.099 0.703467,-0.31579 1.571982,-1.05495 1.985681,-1.68994 l 0.225253,-0.34575 1.3771,0.71225 c 0.757393,0.39175 1.39938,0.73028 1.426625,0.75232 0.154487,0.12493 -0.603589,1.18706 -1.413987,1.98113 -1.059785,1.03842 -2.440524,1.78008 -3.837906,2.0615 -1.313847,0.2646 -2.043338,1.22822 -0.929798,1.22822 0.666316,0 1.406106,0.60262 1.599464,1.3029 0.307607,1.11409 -0.396727,2.36829 -1.502529,2.67549 -0.73728,0.20482 -0.904785,0.19091 -1.621625,-0.13471 z m 15.138798,-5.20384 c -1.285091,-0.36791 -2.262772,-0.97257 -3.390473,-2.09691 -3.057669,-3.04854 -3.031382,-7.89157 0.05964,-10.98259 3.123654,-3.123644 7.960837,-3.115604 11.053003,0.0184 0.560501,0.56808 1.205246,1.3823 1.432786,1.80937 0.827069,1.55244 1.097684,3.62818 0.710639,5.45115 -0.578984,2.72701 -2.921245,5.13618 -5.718743,5.88207 -1.049538,0.27984 -3.020033,0.24113 -4.146853,-0.0814 z m 3.362294,-3.155 c 1.741589,-0.45362 2.934539,-1.71308 3.302785,-3.48687 0.207113,-0.99766 0.03954,-2.20635 -0.432812,-3.12307 -0.703638,-1.36544 -2.344508,-2.3358 -3.95406,-2.33832 -2.525491,-0.004 -4.42179,1.75464 -4.594576,4.26098 -0.182849,2.65217 1.738475,4.75412 4.480182,4.90138 0.171669,0.009 0.710981,-0.0871 1.198481,-0.2141 z m 23.926762,3.2864 c -1.40158,-0.35092 -3.09363,-1.5521 -3.80282,-2.69961 -0.17848,-0.28877 -0.29942,-0.54301 -0.26879,-0.56496 0.0306,-0.0219 0.62649,-0.39733 1.32411,-0.83415 l 1.26839,-0.79421 0.80308,0.82256 c 0.64994,0.66571 0.94886,0.85383 1.5676,0.98652 0.71605,0.15357 1.39353,0.0884 2.09701,-0.20157 0.61095,-0.25186 0.7643,-1.31735 0.2785,-1.93496 -0.313,-0.39792 -1.05724,-0.76956 -3.01435,-1.50523 -2.18952,-0.82305 -3.17495,-1.71173 -3.58504,-3.23309 -0.36718,-1.36217 0.19633,-3.40652 1.17611,-4.26677 2.08761,-1.832954 5.51778,-1.726734 7.69275,0.23822 l 0.63515,0.57382 -0.42698,0.44993 c -0.23485,0.24747 -0.75765,0.72835 -1.1618,1.06863 l -0.73481,0.61868 -0.41277,-0.38602 c -0.96605,-0.90343 -2.24886,-1.14843 -2.98426,-0.56996 -0.53053,0.41731 -0.62221,0.78749 -0.35402,1.42936 0.25091,0.60053 0.79352,0.931 2.58244,1.57286 2.21506,0.79475 3.27781,1.58388 3.88484,2.88469 0.40663,0.87135 0.48729,2.44686 0.1781,3.47881 -0.27467,0.91679 -1.32244,1.9834 -2.4498,2.49386 -0.79289,0.35901 -1.20853,0.4436 -2.34113,0.47646 -0.75741,0.0219 -1.63559,-0.0248 -1.95151,-0.10391 z m -80.444632,-7.64584 v -7.65053 h 1.747934 1.747934 l 3.722198,4.9992 3.722186,4.99921 0.04033,-4.99921 0.04033,-4.9992 h 1.681016 1.681029 v 7.65053 7.65051 h -1.743009 -1.743008 l -2.793833,-3.787 c -1.536605,-2.08286 -3.213811,-4.36121 -3.727111,-5.06299 l -0.933279,-1.27599 -0.04033,5.06299 -0.04033,5.06299 H 25.86852 24.187464 Z m 15.608235,7.61227 c 6.44e-4,-0.021 1.230482,-3.44657 2.732958,-7.61227 l 2.731775,-7.57403 1.915794,-0.0427 c 1.717719,-0.0382 1.926855,-0.0146 2.022713,0.22953 0.05885,0.1497 1.21008,3.33623 2.558398,7.08117 1.348317,3.74492 2.54467,7.06716 2.658552,7.38276 l 0.207085,0.57378 h -1.797117 -1.797117 l -0.462764,-1.41534 -0.462764,-1.41536 -2.909685,-0.0415 -2.909698,-0.0415 -0.437529,1.45681 -0.437542,1.45681 h -1.807114 c -0.993904,0 -1.806589,-0.0172 -1.805945,-0.0382 z m 9.332473,-5.7134 c 0,-0.26058 -1.878985,-5.8853 -1.944235,-5.82005 -0.110348,0.11035 -1.87863,5.4897 -1.879931,5.71904 -8.14e-4,0.14288 0.48285,0.19127 1.911538,0.19127 1.051942,0 1.912628,-0.0406 1.912628,-0.0902 z m 40.853792,-1.89887 v -7.65053 h 4.59032 4.5903 v 1.4536 1.45359 h -2.90718 -2.90721 v 1.60661 1.60661 h 2.52467 2.52467 v 1.45361 1.45359 h -2.52467 -2.52467 v 1.68312 1.68312 h 2.90721 2.90718 v 1.45359 1.4536 h -4.5903 -4.59032 z M 79.623876,98.599616 c -0.268934,-0.16397 -0.603918,-0.47356 -0.744401,-0.68796 -0.287626,-0.43898 -0.900437,-0.52563 -1.045413,-0.1478 -0.0511,0.13311 -0.09288,0.40852 -0.09288,0.61203 0,0.35339 -0.04466,0.37001 -0.994574,0.37001 -1.139274,0 -1.152805,-0.0237 -0.763396,-1.33492 0.584817,-1.96931 2.581703,-2.43166 4.070832,-0.94253 0.778187,0.77819 1.007106,0.76055 1.222337,-0.0942 l 0.173377,-0.68854 h 0.899899 0.899898 v 0.57963 c 0,0.78115 -0.57277,1.86564 -1.208465,2.28808 -0.664713,0.44175 -1.734981,0.46222 -2.417218,0.0462 z M 61.747693,92.859926 C 42.18549,90.610016 26.890327,75.972347 23.850156,56.591489 23.394972,53.689703 23.356074,47.027482 23.777773,44.197641 25.979748,29.421951 35.267767,17.081053 48.761241,11.002355 52.361452,9.3804895 56.131968,8.2988395 60.603979,7.6050285 c 2.478343,-0.384504 8.800583,-0.384802 11.399285,-5.4e-4 7.89652,1.167635 14.661701,4.0139125 20.729194,8.7212885 2.04674,1.58793 5.57804,5.082579 7.13746,7.063365 4.829032,6.133881 7.739552,12.892511 8.960962,20.808499 0.4432,2.872364 0.47881,8.697822 0.0701,11.475784 -1.32494,9.006689 -4.80215,16.601553 -10.553262,23.050221 -6.7596,7.57946 -15.62525,12.34791 -25.885484,13.92267 -2.627563,0.40328 -8.114431,0.51267 -10.71463,0.21361 z m 10.530612,-1.82779 c 5.13951,-0.84105 9.517975,-2.31405 13.801949,-4.64324 2.406657,-1.308499 2.460885,-1.43383 0.940661,-2.174566 -1.647938,-0.802977 -4.059981,-1.231125 -6.904061,-1.225506 -1.766522,0.0035 -3.107168,0.170189 -5.05336,0.628346 -1.942671,0.457332 -4.909658,0.472268 -5.890898,0.02966 -0.909896,-0.410429 -1.244591,-0.815434 -1.334722,-1.615123 -0.07041,-0.624671 -0.03705,-0.695015 0.616332,-1.297226 0.379937,-0.350206 1.038963,-0.813177 1.464524,-1.028824 0.425561,-0.215645 1.020007,-0.638345 1.320993,-0.939333 0.639045,-0.639046 0.616686,-0.969851 -0.11153,-1.650333 -0.420569,-0.392981 -0.551712,-0.431048 -1.27759,-0.370853 -1.022266,0.08477 -1.609066,0.516989 -2.830195,2.084595 -2.117125,2.717843 -4.786357,4.170786 -9.72933,5.29597 -0.854354,0.194477 -1.630269,0.401131 -1.724275,0.45923 -0.09406,0.0581 -0.335588,0.430586 -0.536854,0.82775 -0.392444,0.774453 -1.439315,1.831343 -2.207401,2.228543 -0.670533,0.34675 -0.884332,0.7979 -0.552093,1.16502 0.622689,0.68807 6.270495,2.08444 10.093215,2.49546 1.473903,0.15847 8.459648,-0.0315 9.914675,-0.26956 z M 63.973892,79.217725 c 1.205825,-0.482475 1.538904,-2.042443 0.991632,-4.644133 -0.667709,-3.174174 0.08184,-4.763848 3.139825,-6.65933 4.687728,-2.90564 4.899701,-3.075538 7.540715,-6.043913 2.09951,-2.359761 2.722265,-2.963783 4.00775,-3.887195 1.545524,-1.110212 2.823824,-1.615366 4.097827,-1.619365 0.728334,-0.0022 0.830524,-0.242973 0.486069,-1.14489 -0.196143,-0.513601 -0.243777,-0.957399 -0.18344,-1.709063 0.100101,-1.247256 1.02911,-3.219042 2.332803,-4.951397 2.173797,-2.888528 2.948727,-5.274022 2.302194,-7.086863 -0.259882,-0.728653 -0.594945,-1.103353 -1.417955,-1.585672 -0.555718,-0.325672 -0.938612,-0.397811 -2.75437,-0.518945 -1.159925,-0.07737 -2.416628,-0.223039 -2.79269,-0.323686 -0.872233,-0.233443 -1.970298,-1.316233 -2.920181,-2.879561 -0.879248,-1.447069 -1.589703,-1.871143 -3.84877,-2.297355 -2.866006,-0.540721 -3.455827,-0.943421 -3.777635,-2.579165 -0.346991,-1.763727 -1.086084,-2.165781 -3.963479,-2.156076 -1.631097,0.0055 -2.559095,0.109822 -5.30959,0.596906 -2.494094,0.441675 -4.808677,0.562188 -6.134058,0.319378 -0.581584,-0.106551 -1.682946,-0.490837 -2.447459,-0.853978 -1.100455,-0.522711 -1.569013,-0.853583 -2.249214,-1.588286 -0.820028,-0.885734 -0.953667,-1.155712 -1.425785,-2.880373 -0.07317,-0.267142 -0.730961,-0.494988 -1.429147,-0.494988 -1.126689,0 -1.193384,-0.789075 -0.126374,-1.495192 1.243132,-0.822667 2.84454,-0.457749 4.73879,1.079841 1.881231,1.527021 2.728005,1.945862 3.93199,1.944884 0.880194,-7.16e-4 1.563798,-0.40102 1.90204,-1.113814 0.537616,-1.132938 0.24974,-1.863997 -0.979218,-2.486757 -0.627064,-0.317757 -0.754292,-0.452874 -0.75374,-0.800485 8.01e-4,-0.510864 0.541663,-1.341703 1.77799,-2.731226 1.45546,-1.635813 1.6959,-1.943545 2.318024,-2.966714 l 0.580942,-0.955447 1.91448,-0.0415 c 2.356514,-0.05108 3.879141,-0.417606 6.039907,-1.453913 2.141008,-1.026836 3.587115,-2.377218 3.587115,-3.3496805 0,-0.433476 -0.339201,-0.569083 -1.912641,-0.764653 -12.0483,-1.497545 -24.744512,2.7214245 -33.41256,11.1030465 l -1.739395,1.681919 0.233044,0.450668 c 0.334813,0.647452 1.699105,2.010078 2.922466,2.918892 1.377258,1.023156 2.810188,1.859871 5.984668,3.494573 3.935341,2.026506 6.112632,3.377417 7.274015,4.513173 1.50626,1.473037 1.525084,2.286014 0.08854,3.82186 -0.788014,0.842453 -0.954915,1.130819 -1.145553,1.979242 -0.297545,1.324312 0.492715,3.518187 1.723972,4.785972 0.566833,0.583653 3.064356,2.274004 4.651812,3.148402 2.009879,1.107076 3.432733,2.813408 4.32806,5.190327 l 0.507784,1.348084 -0.0066,2.907198 c -0.0092,4.192317 -0.39825,5.958886 -2.489903,11.322775 -0.916648,2.350642 -1.168753,3.268815 -1.406447,5.1223 -0.278825,2.174135 0.164234,3.910255 1.32609,5.196288 1.131116,1.252013 2.564415,1.670639 3.895891,1.137885 z M 27.798646,61.180337 c 0.587865,-0.587873 0.826176,-1.326714 0.826176,-2.561453 0,-1.196045 -0.153712,-1.867565 -0.909081,-3.97138 -0.263035,-0.73257 -0.520027,-1.779383 -0.571089,-2.326253 -0.08158,-0.873731 -0.04414,-1.092592 0.308343,-1.804771 0.220643,-0.445755 0.757564,-1.22359 1.193148,-1.728526 1.202855,-1.394385 1.366971,-1.885716 1.527908,-4.57404 0.188235,-3.144491 0.315542,-3.730147 1.198311,-5.512982 1.027245,-2.074609 1.383747,-3.169642 1.383747,-4.250365 0,-0.752671 -0.06187,-0.962915 -0.375577,-1.276634 -0.444556,-0.444558 -1.184635,-0.494965 -2.037163,-0.138753 -1.544592,0.645367 -2.189403,2.164514 -2.399944,5.654084 -0.243238,4.031661 -0.354177,4.763649 -0.898887,5.931203 -0.284132,0.609003 -0.871051,1.686698 -1.304283,2.394876 l -0.787686,1.287599 1.31e-4,1.849116 c 1.45e-4,2.102149 0.201871,4.54428 0.550872,6.668946 0.23018,1.401297 0.921732,4.373695 1.075443,4.622402 0.157233,0.254406 0.852016,0.104541 1.219631,-0.263069 z M 106.2714,60.466502 c 0.43179,-1.453971 0.98208,-4.617759 1.16638,-6.705708 0.223,-2.526687 0.10207,-7.243737 -0.24315,-9.486648 -1.13743,-7.389072 -4.09005,-14.232837 -8.581742,-19.891361 -1.1455,-1.443071 -5.4343,-5.814397 -5.70461,-5.814397 -0.24657,0 -0.21457,0.399366 0.14211,1.773398 0.17282,0.665668 0.40809,1.910399 0.52284,2.766068 0.17996,1.341812 0.17719,1.804742 -0.0201,3.366232 -0.37902,2.999904 -0.1411,3.94694 1.39836,5.566046 1.39479,1.466967 1.50463,1.798469 1.61992,4.889512 0.14978,4.016136 0.53204,4.828776 2.79318,5.93808 1.261112,0.618692 2.006442,1.254208 2.439992,2.080481 0.29544,0.56304 0.33963,0.967648 0.43614,3.99276 0.12742,3.99495 0.33431,5.317685 1.24439,7.956544 0.71106,2.061798 1.95703,4.360798 2.36337,4.360798 0.10325,0 0.2936,-0.356312 0.42292,-0.791805 z"
       id="path1" /></g></svg>
